<?xml version="1.0" encoding="utf-8"?>
<!-- Generator: Adobe Illustrator 16.0.0, SVG Export Plug-In . SVG Version: 6.00 Build 0)  -->
<!DOCTYPE svg PUBLIC "-//W3C//DTD SVG 1.1//EN" "http://www.w3.org/Graphics/SVG/1.1/DTD/svg11.dtd">
<svg version="1.1" xmlns="http://www.w3.org/2000/svg" xmlns:xlink="http://www.w3.org/1999/xlink" x="0px" y="0px" width="1200px"
	 height="800px" viewBox="0 0 1200 800" enable-background="new 0 0 1200 800" xml:space="preserve">
<g id="helmet_xA0_Image_1_">
</g>
<g id="Layer_2">
	<rect x="619.126" fill="#A42B22" width="580.874" height="800"/>
	<ellipse opacity="0.25" fill="#999999" cx="301.64" cy="484.318" rx="138.216" ry="15.234"/>
	<ellipse opacity="0.5" fill="#999999" cx="301.64" cy="481.318" rx="107.98" ry="11.9"/>
	<ellipse opacity="0.75" fill="#999999" cx="301.64" cy="479.318" rx="79.388" ry="8.75"/>
	<g>
		<path fill="#FFFFFF" d="M298.126,480.516c-53.122,0-99.799-17.705-113.509-43.057l-0.241-0.445v-16.703
			c-12.894-8.354-20.232-18.076-21.278-28.197c-4.956-7.396-7.468-15.23-7.468-23.295c0-9.713,3.586-18.993,10.663-27.593V274.88
			c0-61.654,59.14-111.813,131.833-111.813c72.693,0,131.833,50.159,131.833,111.813v89.541c1.124,1.486,3.334,5.338,3.334,12.647
			v12.502c0,11.046-7.399,21.659-21.417,30.741v16.701l-0.241,0.445C397.927,462.81,351.25,480.516,298.126,480.516z"/>
		<path d="M298.126,165.068c71.705,0,129.833,49.165,129.833,109.813v90.269c0,0,3.334,3.252,3.334,11.919v12.502
			c0,10.933-7.873,21.112-21.417,29.645v17.291c-13.076,24.182-58.149,42.01-111.75,42.01c-53.601,0-98.673-17.828-111.75-42.008
			v-17.293c-12.778-8.049-20.501-17.566-21.334-27.798c-4.775-6.975-7.412-14.603-7.412-22.599c0-9.66,3.844-18.785,10.663-26.869
			V274.88C168.293,214.233,226.421,165.068,298.126,165.068 M298.126,161.068c-35.625,0-69.146,11.758-94.39,33.109
			c-25.436,21.514-39.444,50.174-39.444,80.703v65.636c-6.981,8.714-10.663,18.47-10.663,28.301c0,8.319,2.534,16.389,7.535,23.999
			c1.262,10.315,8.561,20.143,21.211,28.573v15.118v1.013l0.481,0.89c6.949,12.849,21.739,23.881,42.771,31.906
			c20.917,7.98,45.986,12.199,72.498,12.199c26.512,0,51.581-4.219,72.498-12.199c21.033-8.025,35.823-19.06,42.771-31.908
			l0.481-0.89v-1.013V421.39c14.023-9.341,21.417-20.31,21.417-31.82v-12.502c0-7.007-1.977-11.204-3.334-13.259V274.88
			c0-30.529-14.008-59.189-39.444-80.703C367.272,172.826,333.751,161.068,298.126,161.068L298.126,161.068z"/>
	</g>
	<path fill="#262626" d="M428.126,270.526c0-50.695-58.205-91.792-130.001-91.792c-71.797,0-130,41.097-130,91.792
		c0,0.349,0.013,0.694,0.019,1.042h-0.018v80.833c0,9.57,58.203,17.328,130,17.328c71.799,0,130-7.758,130-17.328v-80.833h-0.019
		C428.113,271.22,428.126,270.875,428.126,270.526z"/>
	<path d="M204.401,364.408c23.653,3.28,56.899,5.321,93.726,5.321c38.953,0,73.898-2.284,97.725-5.902v-75.464h-0.015
		c0.005-0.278,0.015-0.554,0.015-0.833c0-23.402-14.294-44.244-36.554-57.679c4.467-7.74,7.117-16.421,7.424-25.622
		c-19.043-9.784-41.948-15.495-66.596-15.495c-27.075,0-52.047,6.89-72.106,18.503c0.818,9.125,3.934,17.683,8.838,25.235
		c-19.899,13.445-32.457,33.126-32.457,55.057c0,0.279,0.01,0.555,0.014,0.833h-0.014V364.408z"/>
	<g>
		<path d="M315.443,414.9c1.165-1.146,2.184-2.416,3-3.807v-17.335c-0.816-1.39-1.835-2.661-3-3.806V414.9z"/>
		<path d="M310.276,418.568c1.063-0.522,2.063-1.137,3-1.821v-28.641c-0.937-0.685-1.937-1.299-3-1.822V418.568z"/>
		<path d="M304.276,420.447c1.029-0.162,2.031-0.395,3-0.697v-34.648c-0.969-0.302-1.971-0.534-3-0.697V420.447z"/>
		<path d="M294.443,419.75c0.969,0.303,1.971,0.535,3,0.697v-36.042c-1.029,0.163-2.031,0.396-3,0.697V419.75z"/>
		<path d="M289.276,417.318c0.942,0.617,1.946,1.156,3,1.618v-33.021c-1.054,0.462-2.058,1.001-3,1.619V417.318z"/>
		<path d="M283.276,411.093c0.816,1.39,1.835,2.661,3,3.806v-24.945c-1.165,1.146-2.184,2.416-3,3.806V411.093z"/>
	</g>
	<g>
		<path fill="none" stroke="#000000" stroke-miterlimit="10" d="M185.88,419.568c23.741,14.957,65.416,24.852,112.246,24.852
			c46.83,0,88.513-9.895,112.254-24.852"/>
	</g>
	<path fill="none" stroke="#000000" stroke-miterlimit="10" d="M168.293,356.148c0,0,5.92,18.919,132.253,18.919
		c111.001,0,127.834-18.919,127.834-18.919"/>
	<circle fill="#A42B22" cx="348.88" cy="398.734" r="6"/>
	<circle fill="#0398CC" cx="367.752" cy="394.724" r="5.417"/>
	<circle fill="#30AB48" cx="392.298" cy="386.284" r="4.025"/>
	<path fill="#A42B22" d="M237.068,386.757c-4.962,0-9.624,1.3-13.678,3.575c0.047,0.012,0.093,0.024,0.14,0.036
		c-2.105,1.625-9.257,7.598-2.649,9.034c4.382,0.952,11.7,1.36,17.17,1.535c-2.476,4.263-3.9,9.227-3.9,14.532
		c0,2.379,0.297,4.686,0.837,6.896c10.776,2.199,20.809,3.477,28.199,4.203c1.413-3.415,2.195-7.164,2.195-11.1
		C265.381,399.611,252.705,386.757,237.068,386.757z"/>
	<path fill="none" stroke="#000000" stroke-width="2" stroke-miterlimit="10" d="M238.05,400.937
		c-5.47-0.175-12.788-0.583-17.17-1.535c-6.607-1.436,0.544-7.409,2.649-9.034c-25.272-6.188-45.37-18.518-55.237-33.956
		l-0.913-14.462c-6.819,8.083-9.75,17.208-9.75,26.869c0,28.684,33.85,52.649,79.079,58.577c-1.639-3.633-2.56-7.67-2.56-11.926
		C234.15,410.163,235.575,405.199,238.05,400.937z"/>
	<path fill="none" stroke="#000000" stroke-miterlimit="10" d="M182.396,371.502c0,0-15.268,4.44-14.27,23.981"/>
	<path fill="none" stroke="#000000" stroke-miterlimit="10" d="M189.149,376.24c0,0-14.348,5.494-13.635,26.682"/>
	<path fill="none" stroke="#000000" stroke-miterlimit="10" d="M197.121,380.757c0,0-16.24,9.47-11.334,29.63"/>
	<path fill="none" stroke="#000000" stroke-miterlimit="10" d="M205.75,384.672c0,0-15.949,10.908-7.909,32.068"/>
	<path fill="none" stroke="#000000" stroke-miterlimit="10" d="M215.067,388.005c0,0-16.02,12.702-6.777,32.842"/>
	<path fill="none" stroke="#000000" stroke-miterlimit="10" d="M177.307,367.146c0,0-14.763,1.743-15.519,18.771"/>
	<path fill="none" stroke="#000000" stroke-miterlimit="10" d="M220.88,399.401c0,0-6.88,9.599-1.536,24.707"/>
	<path fill="none" stroke="#000000" stroke-miterlimit="10" d="M232.749,400.707c0,0-7.885,12.094-1.379,25.727"/>
	<path fill="none" stroke="#000000" stroke-miterlimit="10" d="M172.383,361.954c0,0-12.348-1.05-14.208,13.114"/>
	<path fill="none" stroke="#000000" stroke-miterlimit="10" d="M168.293,357.412c0,0-7.951-1.46-10.118,6.202"/>
	<path fill="none" stroke="#000000" stroke-miterlimit="10" d="M168.293,352.235c0,0-4.155-1.566-7.951,2.717"/>
	<path fill="none" stroke="#000000" stroke-miterlimit="10" d="M419.88,358.484v-76.917h-0.018c0.005-0.348,0.018-0.693,0.018-1.042
		c0-50.695-53.617-91.792-119.755-91.792c-66.138,0-119.753,41.097-119.753,91.792c0,0.349,0.012,0.694,0.017,1.042h-0.017v78.182"
		/>
	<path fill="none" stroke="#000000" stroke-miterlimit="10" d="M235.017,422.485c16.546,3.458,37.229,5.583,63.11,5.583
		c140.496,0,130.254-62.919,130.254-62.919"/>
	<path fill="none" stroke="#000000" stroke-miterlimit="10" d="M237.017,427.485c16.546,3.458,37.229,5.583,63.11,5.583
		c140.496,0,130.254-62.919,130.254-62.919"/>
	<path opacity="0.1" fill="#FFFFFF" d="M324.88,263.734c0,0,16.334-7,26.667-12.667c0,0,16.334,23.667,19.667,45.667
		c0,0-16,7-38.667,8C332.547,304.734,331.88,286.734,324.88,263.734z"/>
	<g>
		<path fill="#FFFFFF" d="M923.004,165.068c71.705,0,129.832,49.165,129.832,109.813v90.269c0,0,3.334,3.252,3.334,11.919v12.502
			c0,10.933-7.873,21.112-21.416,29.645v17.291c-13.076,24.182-58.15,42.01-111.75,42.01c-53.602,0-98.674-17.828-111.751-42.008
			v-17.293c-12.777-8.049-20.5-17.566-21.334-27.798c-4.775-6.975-7.412-14.603-7.412-22.599c0-9.66,3.844-18.785,10.663-26.869
			V274.88C793.17,214.233,851.298,165.068,923.004,165.068 M923.004,161.068c-35.625,0-69.146,11.758-94.39,33.109
			c-25.437,21.514-39.444,50.174-39.444,80.703v65.636c-6.981,8.714-10.663,18.47-10.663,28.302c0,8.32,2.534,16.389,7.535,24
			c1.263,10.314,8.562,20.142,21.211,28.572v15.118v1.013l0.481,0.89c6.948,12.849,21.738,23.881,42.771,31.906
			c20.917,7.98,45.986,12.199,72.498,12.199s51.58-4.219,72.497-12.199c21.033-8.025,35.823-19.06,42.771-31.908l0.481-0.89v-1.013
			V421.39c14.022-9.342,21.416-20.311,21.416-31.82v-12.502c0-7.007-1.977-11.204-3.334-13.259V274.88
			c0-30.529-14.008-59.189-39.443-80.703C992.149,172.826,958.628,161.068,923.004,161.068L923.004,161.068z"/>
	</g>
	<path fill="#FFFFFF" d="M1053.004,270.526c0-50.695-58.205-91.792-130.002-91.792s-129.999,41.097-129.999,91.792
		c0,0.349,0.014,0.694,0.019,1.042h-0.019v80.833c0,9.57,58.203,17.328,130.001,17.328c71.799,0,130-7.758,130-17.328v-80.833h-0.02
		C1052.99,271.22,1053.004,270.875,1053.004,270.526z"/>
	<path fill="#A42B22" d="M829.277,365.408c23.654,3.28,56.9,5.321,93.727,5.321c38.953,0,73.898-2.284,97.725-5.902v-76.464h-0.016
		c0.006-0.278,0.016-0.554,0.016-0.833c0-23.402-14.295-44.244-36.555-57.679c4.467-7.74,7.117-16.421,7.424-25.622
		c-19.043-9.784-41.947-15.495-66.596-15.495c-27.074,0-52.047,6.89-72.105,18.503c0.818,9.125,3.934,17.683,8.838,25.235
		c-19.899,13.445-32.457,33.126-32.457,55.057c0,0.279,0.01,0.555,0.014,0.833h-0.014V365.408z"/>
	<g>
		<path fill="#FFFFFF" d="M940.32,414.9c1.164-1.146,2.184-2.416,3-3.807v-17.335c-0.816-1.39-1.836-2.661-3-3.806V414.9z"/>
		<path fill="#FFFFFF" d="M935.152,418.568c1.064-0.522,2.064-1.137,3-1.821v-28.641c-0.936-0.685-1.936-1.299-3-1.822V418.568z"/>
		<path fill="#FFFFFF" d="M929.152,420.447c1.029-0.162,2.031-0.395,3-0.697v-34.648c-0.969-0.302-1.971-0.534-3-0.697V420.447z"/>
		<path fill="#FFFFFF" d="M919.32,419.75c0.969,0.303,1.971,0.535,3,0.697v-36.042c-1.029,0.163-2.031,0.396-3,0.697V419.75z"/>
		<path fill="#FFFFFF" d="M914.152,417.318c0.943,0.617,1.947,1.156,3,1.618v-33.021c-1.053,0.462-2.057,1.001-3,1.619V417.318z"/>
		<path fill="#FFFFFF" d="M908.152,411.093c0.816,1.39,1.836,2.661,3,3.806v-24.945c-1.164,1.146-2.184,2.416-3,3.806V411.093z"/>
	</g>
	<g>
		<path fill="none" stroke="#FFFFFF" stroke-miterlimit="10" d="M810.757,419.568c23.741,14.957,65.416,24.852,112.247,24.852
			c46.83,0,88.512-9.895,112.254-24.852"/>
	</g>
	<path fill="none" stroke="#FFFFFF" stroke-miterlimit="10" d="M793.17,356.148c0,0,5.921,18.919,132.254,18.919
		c111,0,127.834-18.919,127.834-18.919"/>
	<circle fill="#FFFFFF" cx="973.758" cy="398.734" r="6"/>
	<circle fill="#FFFFFF" cx="992.629" cy="394.724" r="5.416"/>
	<circle fill="#FFFFFF" cx="1017.175" cy="386.284" r="4.024"/>
	<path fill="#FFFFFF" d="M861.945,386.757c-4.963,0-9.623,1.3-13.678,3.575c0.047,0.012,0.092,0.024,0.139,0.036
		c-2.104,1.625-9.256,7.598-2.648,9.034c4.381,0.952,11.699,1.36,17.17,1.535c-2.477,4.263-3.9,9.227-3.9,14.532
		c0,2.379,0.297,4.686,0.836,6.896c10.776,2.199,20.809,3.477,28.199,4.203c1.414-3.415,2.195-7.164,2.195-11.1
		C890.258,399.611,877.582,386.757,861.945,386.757z"/>
	<path fill="none" stroke="#FFFFFF" stroke-width="2" stroke-miterlimit="10" d="M862.928,400.937
		c-5.471-0.175-12.789-0.583-17.17-1.535c-6.607-1.436,0.544-7.409,2.648-9.034c-25.271-6.188-45.37-18.518-55.236-33.956
		l-0.913-14.462c-6.818,8.083-9.75,17.208-9.75,26.869c0,28.684,33.851,52.649,79.079,58.577c-1.639-3.633-2.559-7.67-2.559-11.926
		C859.027,410.163,860.451,405.199,862.928,400.937z"/>
	<path fill="none" stroke="#FFFFFF" stroke-miterlimit="10" d="M807.272,371.502c0,0-15.268,4.44-14.27,23.981"/>
	<path fill="none" stroke="#FFFFFF" stroke-miterlimit="10" d="M814.026,376.24c0,0-14.349,5.494-13.636,26.682"/>
	<path fill="none" stroke="#FFFFFF" stroke-miterlimit="10" d="M821.998,380.757c0,0-16.241,9.47-11.335,29.63"/>
	<path fill="none" stroke="#FFFFFF" stroke-miterlimit="10" d="M830.627,384.672c0,0-15.95,10.908-7.91,32.068"/>
	<path fill="none" stroke="#FFFFFF" stroke-miterlimit="10" d="M839.943,388.005c0,0-16.02,12.702-6.777,32.842"/>
	<path fill="none" stroke="#FFFFFF" stroke-miterlimit="10" d="M802.184,367.146c0,0-14.763,1.743-15.519,18.771"/>
	<path fill="none" stroke="#FFFFFF" stroke-miterlimit="10" d="M845.758,399.401c0,0-6.881,9.599-1.537,24.707"/>
	<path fill="none" stroke="#FFFFFF" stroke-miterlimit="10" d="M857.625,400.707c0,0-7.885,12.094-1.379,25.727"/>
	<path fill="none" stroke="#FFFFFF" stroke-miterlimit="10" d="M797.261,361.954c0,0-12.348-1.05-14.209,13.114"/>
	<path fill="none" stroke="#FFFFFF" stroke-miterlimit="10" d="M793.17,357.412c-0.002,0-7.951-1.46-10.118,6.159"/>
	<path fill="none" stroke="#FFFFFF" stroke-miterlimit="10" d="M793.17,352.235c0,0-4.155-1.566-7.95,2.717"/>
	<path fill="none" stroke="#A42B22" stroke-miterlimit="10" d="M1044.758,358.484v-76.917h-0.018
		c0.004-0.348,0.018-0.693,0.018-1.042c0-50.695-53.617-91.792-119.756-91.792c-66.138,0-119.753,41.097-119.753,91.792
		c0,0.349,0.012,0.694,0.018,1.042h-0.018v78.182"/>
	<path fill="none" stroke="#FFFFFF" stroke-miterlimit="10" d="M859.894,422.485c16.546,3.458,37.229,5.583,63.11,5.583
		c140.496,0,130.254-62.919,130.254-62.919"/>
	<path fill="none" stroke="#FFFFFF" stroke-miterlimit="10" d="M861.894,427.485c16.546,3.458,37.229,5.583,63.11,5.583
		c140.496,0,130.254-62.919,130.254-62.919"/>
	<path fill="#FFFFFF" d="M949.758,263.734c0,0,16.334-7,26.666-12.667c0,0,16.334,23.667,19.668,45.667c0,0-16,7-38.668,8
		C957.424,304.734,956.758,286.734,949.758,263.734z"/>
	<text transform="matrix(1 0 0 1 775.8691 558.582)" fill="#FFFFFF" font-family="'Futura-Medium'" font-size="48">hello tomorrow</text>
	<text transform="matrix(1 0 0 1 161.5977 558.582)" font-family="'Futura-Medium'" font-size="48">future friendly</text>
	<text transform="matrix(1 0 0 1 835.8945 590.582)" fill="#FFFFFF" font-family="'Futura-Medium'" font-size="24">http://futurefriend.ly</text>
	<path fill="none" stroke="#FFFFFF" stroke-miterlimit="10" d="M793.003,352.401c0,9.57,58.203,17.328,130.001,17.328
		c71.799,0,130-7.758,130-17.328"/>
	<polygon fill="#FFFFFF" points="1103.149,25.104 1103.149,51.542 1127.421,51.542 1098.574,80.387 1117.27,99.081 1146.114,70.236 
		1146.114,94.506 1172.551,94.506 1172.55,25.105 	"/>
</g>
</svg>
