<?xml version="1.0" encoding="utf-8"?>
<!-- Generator: Adobe Illustrator 16.0.0, SVG Export Plug-In . SVG Version: 6.00 Build 0)  -->
<!DOCTYPE svg PUBLIC "-//W3C//DTD SVG 1.1//EN" "http://www.w3.org/Graphics/SVG/1.1/DTD/svg11.dtd">
<svg version="1.1"
	 id="svg3070" xmlns:dc="http://purl.org/dc/elements/1.1/" xmlns:cc="http://creativecommons.org/ns#" xmlns:rdf="http://www.w3.org/1999/02/22-rdf-syntax-ns#" xmlns:svg="http://www.w3.org/2000/svg" xmlns:sodipodi="http://sodipodi.sourceforge.net/DTD/sodipodi-0.dtd" xmlns:inkscape="http://www.inkscape.org/namespaces/inkscape" sodipodi:docname="New document 4" inkscape:version="0.48.0 r9654"
	 xmlns="http://www.w3.org/2000/svg" xmlns:xlink="http://www.w3.org/1999/xlink" x="0px" y="0px" width="287.865px"
	 height="76.248px" viewBox="1.786 1.783 287.865 76.248" enable-background="new 1.786 1.783 287.865 76.248" xml:space="preserve"
	>
<sodipodi:namedview  fit-margin-left="0" fit-margin-top="0" showgrid="false" inkscape:cy="33.703355" inkscape:cx="142.93233" inkscape:zoom="2.8" borderopacity="1.0" bordercolor="#666666" pagecolor="#ffffff" id="base" inkscape:window-maximized="1" inkscape:window-y="-8" inkscape:window-x="-8" inkscape:window-height="750" inkscape:window-width="1280" inkscape:current-layer="layer1" inkscape:document-units="px" inkscape:pageopacity="0.0" fit-margin-right="0" fit-margin-bottom="0" inkscape:pageshadow="2">
	</sodipodi:namedview>
<g id="layer1" transform="translate(-200.55198,-393.96227)" inkscape:label="Layer 1" inkscape:groupmode="layer">
	<g id="g3019" transform="matrix(1.018827,0,0,-1.018827,170.5996,498.03288)">
		<path id="path14" inkscape:connector-curvature="0" fill="#006699" d="M239.329,95.036c0,2.96,2.461,5.361,5.496,5.361h63.376
			c3.035,0,5.495-2.401,5.495-5.361V30.919c0-2.96-2.461-5.36-5.495-5.36h-63.376c-3.035,0-5.496,2.4-5.496,5.36V95.036z"/>
		<path id="path16" inkscape:connector-curvature="0" d="M31.152,37.709h31.036v10.189H42.383v38.874H31.152V37.709z"/>
		<path id="path18" inkscape:connector-curvature="0" d="M77.9,37.709v33.793H66.668V37.709H77.9z M72.284,76.116
			c3.917,0,6.355,2.595,6.355,5.84c-0.073,3.315-2.438,5.837-6.28,5.837c-3.843,0-6.355-2.522-6.355-5.837
			c0-3.245,2.438-5.84,6.207-5.84H72.284L72.284,76.116z"/>
		<path id="path20" inkscape:connector-curvature="0" d="M83.116,37.709h11.232v18.872c0,1.009,0.073,2.02,0.37,2.74
			c0.811,2.018,2.659,4.108,5.763,4.108c4.065,0,5.691-3.099,5.691-7.641v-18.08h11.231v19.377c0,10.38-5.542,15.21-12.932,15.21
			c-6.059,0-8.72-3.387-10.198-5.694h0.075v4.9H83.116C83.263,68.331,83.116,37.709,83.116,37.709L83.116,37.709z"/>
		<path id="path22" inkscape:connector-curvature="0" d="M133.249,86.772h-11.233V37.709h11.233v10.956l2.807,3.535l8.794-14.491
			h13.818l-14.778,20.977l12.932,14.272h-13.523c0,0-9.237-12.769-10.05-14.283V86.772L133.249,86.772z"/>
		<path id="path24" inkscape:connector-curvature="0" d="M188.706,51.805c0.148,0.868,0.37,2.533,0.37,4.415
			c0,8.736-4.435,17.605-16.11,17.605c-12.489,0-18.253-9.877-18.253-18.835c0-11.08,7.02-18,19.287-18
			c4.877,0,9.384,0.72,13.08,2.234l-1.479,7.418c-3.029-1.005-6.133-1.508-9.975-1.508c-5.246,0-9.827,2.153-10.198,6.744
			l23.278-0.071V51.805z M165.356,59.404c0.295,2.884,2.217,7.138,7.02,7.138c5.098,0,6.281-4.542,6.281-7.138H165.356z"/>
		<path id="path26" inkscape:connector-curvature="0" d="M216.8,86.772V69.788h-0.147c-1.627,2.377-5.026,3.963-9.532,3.963
			c-8.646,0-16.257-6.92-16.184-18.741c0-10.958,6.873-18.094,15.444-18.094c4.656,0,9.089,2.02,11.306,5.912h0.222l0.444-5.119
			h9.976c-0.148,2.379-0.297,6.488-0.297,10.525v38.539H216.8L216.8,86.772z M216.8,53.352c0-0.865-0.073-1.731-0.221-2.451
			c-0.664-3.1-3.325-5.261-6.576-5.261c-4.655,0-7.685,3.748-7.685,9.658c0,5.55,2.588,10.019,7.759,10.019
			c3.473,0,5.911-2.378,6.577-5.332c0.147-0.651,0.147-1.372,0.147-2.02V53.352L216.8,53.352z"/>
		<path id="path28" inkscape:connector-curvature="0" fill="#FFFFFF" d="M261.873,37.749v33.794H250.64V37.749H261.873z
			 M256.257,76.157c3.917,0,6.355,2.595,6.355,5.838c-0.073,3.316-2.438,5.839-6.281,5.839c-3.843,0-6.354-2.523-6.354-5.839
			c0-3.243,2.438-5.838,6.207-5.838H256.257L256.257,76.157z"/>
		<path id="path30" inkscape:connector-curvature="0" fill="#FFFFFF" d="M268.089,37.749h11.232V56.62c0,1.01,0.073,2.02,0.37,2.741
			c0.811,2.019,2.66,4.108,5.763,4.108c4.064,0,5.691-3.099,5.691-7.641v-18.08h11.231v19.377c0,10.38-5.541,15.21-12.931,15.21
			c-6.059,0-8.72-3.387-10.198-5.694h0.075v4.901h-11.232C268.236,68.372,268.089,37.749,268.089,37.749L268.089,37.749z"/>
	</g>
</g>
</svg>
