<svg xmlns="http://www.w3.org/2000/svg" width="19.883" height="18.555"><path d="M19.883 8.751v-.368c-1.299-.666-2.291-1.721-2.749-2.999l-.019.008v-.019h-1.29v.01l-.013-.005c-.806 2.246-3.168 3.429-5.882 3.429-2.713 0-5.075-1.182-5.881-3.424l-.025.01v-.02h-1.284v.051c-.468 1.26-1.452 2.303-2.74 2.961v.367c.232-.108.449-.24.663-.374v1.735h-.654v.707h2.731v2.361h1.284v-2.361h11.801v2.361h1.29v-2.361h2.768v-.705h-.653v-1.735c.211.131.424.262.653.371zm-18.038 1.364h-1.004v-1.836c.372-.248.701-.542 1.004-.855v2.691zm.895 0h-.718v-2.883c.273-.304.521-.626.718-.976v3.859zm2.07 0h-.786v-3.927c.212.398.485.743.786 1.059v2.868zm1.428 0h-1.249v-2.676c.367.347.789.632 1.249.87v1.806zm1.429 0h-1.249v-1.708c.389.187.812.324 1.249.437v1.271zm1.429 0h-1.25v-1.222c.404.094.818.164 1.25.2v1.022zm1.429 0h-1.25v-1.014c.217.017.433.032.655.032l.595-.027v1.009zm1.428 0h-1.25v-1.019c.431-.033.846-.097 1.25-.188v1.207zm1.428 0h-1.249v-1.252c.438-.11.858-.248 1.249-.429v1.681zm1.43 0h-1.252v-1.771c.461-.229.883-.507 1.252-.841v2.612zm1.014 0h-.837v-2.801c.324-.326.611-.688.837-1.107v3.908zm2.044 0h-.754v-3.926c.201.377.466.721.754 1.046v2.88zm1.186 0h-1.008v-2.688c.305.312.635.604 1.008.852v1.836z"/></svg>