<svg xmlns="http://www.w3.org/2000/svg" width="600.25" height="162.344"><defs><clipPath id="a"><path d="M0 0h4802v1298.75h-4802v-1298.75z"/></clipPath></defs><g clip-path="url(#a)" fill="#161312" transform="matrix(.125 0 0 -.125 0 162.343)"><path d="M924.973 742.875h-403.567c-10.41 0-18.855-8.449-18.855-18.867v-197.305c0-10.41 8.445-18.887 18.855-18.887h157.434v-245.136s-35.356-12.051-133.078-12.051c-115.301 0-276.367 42.133-276.367 396.312 0 354.259 167.714 400.869 325.175 400.869 136.297 0 195.02-24 232.383-35.56 11.738-3.6 22.598 8.09 22.598 18.51l45.019 190.64c0 4.87-1.648 10.74-7.207 14.73-15.175 10.82-107.746 62.62-341.601 62.62-269.414 0-545.762-114.62-545.762-665.621 0-551.02 316.395-633.129 583.02-633.129 220.757 0 354.683 94.34 354.683 94.34 5.52 3.051 6.113 10.762 6.113 14.301v615.367c0 10.418-8.433 18.867-18.843 18.867"/><path d="M3004.75 1232.73c0 10.5-8.32 18.97-18.73 18.97h-227.23c-10.38 0-18.82-8.47-18.82-18.97l.06-439.125h-354.19v439.125c0 10.5-8.36 18.97-18.75 18.97h-227.22c-10.34 0-18.77-8.47-18.77-18.97v-1189.031c0-10.488 8.43-19.027 18.77-19.027h227.22c10.39 0 18.75 8.539 18.75 19.027v508.59h354.19s-.62-508.551-.62-508.59c0-10.488 8.43-19.027 18.82-19.027h227.77c10.41 0 18.73 8.539 18.75 19.027v1189.031"/><path d="M1353.76 1076.7c0 81.82-65.6 147.94-146.53 147.94-80.85 0-146.5-66.12-146.5-147.94 0-81.735 65.65-148.032 146.5-148.032 80.93 0 146.53 66.297 146.53 148.032"/><path d="M1337.51 294.52v548.859c0 10.422-8.41 18.941-18.8 18.941h-226.51c-10.39 0-19.69-10.718-19.69-21.136v-786.352c0-23.113 14.4-29.98 33.04-29.98h204.08c22.39 0 27.88 10.988 27.88 30.348v239.321"/><path d="M3868.32 860.531h-225.49c-10.34 0-18.76-8.523-18.76-19.011v-583.02s-57.28-41.91-138.59-41.91c-81.3 0-102.88 36.89-102.88 116.5v508.43c0 10.488-8.4 19.011-18.75 19.011h-228.85c-10.33 0-18.79-8.523-18.79-19.011v-546.93c0-236.461 131.79-294.309 313.09-294.309 148.73 0 268.65 82.168 268.65 82.168s5.71-43.301 8.29-48.438c2.59-5.121 9.32-10.293 16.59-10.293l145.59.641c10.33 0 18.79 8.539 18.79 18.98l-.07 798.18c0 10.488-8.43 19.011-18.82 19.011"/><path d="M4395.67 217.309c-78.21 2.382-131.26 37.871-131.26 37.871v376.543s52.34 32.078 116.55 37.812c81.2 7.274 159.44-17.254 159.44-210.957 0-204.258-35.31-244.566-144.73-241.269zm88.94 669.933c-128.07 0-215.18-57.14-215.18-57.14v402.628c0 10.5-8.39 18.97-18.75 18.97h-227.87c-10.36 0-18.78-8.47-18.78-18.97v-1189.031c0-10.488 8.42-19.027 18.81-19.027h158.1c7.12 0 12.51 3.668 16.49 10.098 3.93 6.391 9.6 54.82 9.6 54.82s93.18-88.301 269.57-88.301c207.08 0 325.84 105.043 325.84 471.547 0 366.512-189.67 414.406-317.83 414.406"/><path d="M1990.58 862.426h-170.45s-.26 225.134-.26 225.184c0 8.52-4.39 12.78-14.24 12.78h-232.28c-9.03 0-13.88-3.97-13.88-12.65v-232.697s-116.4-28.102-124.27-30.371c-7.84-2.274-13.61-9.5-13.61-18.125v-146.227c0-10.515 8.4-18.996 18.79-18.996h119.09v-351.785c0-261.289 183.28-286.961 306.96-286.961 56.51 0 124.11 18.152 135.27 22.273 6.75 2.48 10.67 9.469 10.67 17.047l.19 160.864c0 10.488-8.86 18.976-18.84 18.976-9.93 0-35.34-4.039-61.5-4.039-83.72 0-112.09 38.93-112.09 89.317 0 50.351-.01 334.308-.01 334.308h170.46c10.39 0 18.8 8.481 18.8 18.996v183.16c0 10.497-8.41 18.946-18.8 18.946"/></g></svg>