<svg xmlns="http://www.w3.org/2000/svg" width="291" height="79.46"><g transform="translate(-200.552 -393.962)"><path d="M414.435 401.208c0-3.016 2.507-5.462 5.599-5.462h64.569c3.092 0 5.599 2.446 5.599 5.462v65.324c0 3.017-2.507 5.462-5.599 5.462h-64.569c-3.092 0-5.599-2.445-5.599-5.462v-65.324z" fill="#069"/><path d="M202.338 459.614h31.62v-10.381h-20.177v-39.606h-11.443v49.987z" fill-rule="evenodd"/><path d="M249.966 459.614v-34.429h-11.444v34.429h11.444zm-5.722-39.13c3.991 0 6.475-2.644 6.475-5.95-.074-3.377-2.484-5.947-6.399-5.947s-6.475 2.569-6.475 5.947c0 3.306 2.483 5.95 6.324 5.95h.074z" fill-rule="evenodd"/><path d="M255.28 459.614h11.444v-19.227c0-1.029.074-2.057.377-2.793.827-2.055 2.71-4.184 5.871-4.184 4.141 0 5.798 3.158 5.798 7.784v18.42h11.443v-19.742c0-10.575-5.646-15.496-13.176-15.496-6.173 0-8.884 3.451-10.39 5.801h.076v-4.992h-11.444c.15 3.231 0 34.429 0 34.429z" fill-rule="evenodd"/><path d="M306.357 409.627h-11.444v49.987h11.444v-11.162l2.86-3.601 8.959 14.763h14.078l-15.057-21.372 13.175-14.541h-13.777s-9.411 13.009-10.239 14.552v-28.626z" fill-rule="evenodd"/><path d="M362.859 445.253c.15-.884.377-2.581.377-4.498 0-8.9-4.518-17.935-16.413-17.935-12.724 0-18.596 10.063-18.596 19.19 0 11.289 7.152 18.339 19.65 18.339 4.969 0 9.561-.734 13.326-2.276l-1.506-7.558c-3.086 1.024-6.248 1.535-10.163 1.535-5.345 0-10.013-2.194-10.39-6.87l23.716.071zm-23.79-7.742c.301-2.938 2.259-7.272 7.152-7.272 5.194 0 6.399 4.629 6.399 7.272h-13.551z" fill-rule="evenodd"/><path d="M391.482 409.627v17.304h-.15c-1.657-2.422-5.121-4.038-9.712-4.038-8.809 0-16.563 7.05-16.489 19.094 0 11.164 7.002 18.435 15.735 18.435 4.743 0 9.26-2.057 11.519-6.023h.226l.452 5.215h10.164c-.151-2.424-.302-6.61-.302-10.722v-39.265h-11.443zm0 34.05c0 .88-.075 1.763-.226 2.496-.677 3.158-3.388 5.361-6.7 5.361-4.743 0-7.83-3.819-7.83-9.841 0-5.654 2.636-10.208 7.905-10.208 3.538 0 6.023 2.423 6.701 5.433.15.662.15 1.397.15 2.057v4.701z" fill-rule="evenodd"/><path d="M437.403 459.573v-34.43h-11.444v34.43h11.444zm-5.722-39.131c3.991 0 6.475-2.644 6.475-5.948-.074-3.378-2.484-5.949-6.399-5.949s-6.474 2.571-6.474 5.949c0 3.304 2.483 5.948 6.324 5.948h.074z" fill="#fff" fill-rule="evenodd"/><path d="M443.735 459.573h11.444v-19.227c0-1.029.074-2.057.377-2.793.827-2.056 2.71-4.185 5.872-4.185 4.141 0 5.798 3.157 5.798 7.786v18.419h11.443v-19.742c0-10.575-5.646-15.496-13.175-15.496-6.174 0-8.884 3.451-10.39 5.801h.076v-4.993h-11.444c.15 3.231 0 34.43 0 34.43z" fill="#fff" fill-rule="evenodd"/></g></svg>