<svg xmlns="http://www.w3.org/2000/svg" width="287.865" height="76.248" viewBox="1.786 1.783 287.865 76.248" enable-background="new 1.786 1.783 287.865 76.248"><g transform="translate(-200.552 -393.962)"><path fill="#069" d="M414.434 401.208c0-3.016 2.507-5.462 5.599-5.462h64.569c3.092 0 5.598 2.446 5.598 5.462v65.324c0 3.016-2.507 5.461-5.598 5.461h-64.569c-3.092 0-5.599-2.445-5.599-5.461v-65.324z"/><path d="M202.338 459.614h31.62v-10.381h-20.178v-39.606h-11.442v49.987z"/><path d="M249.966 459.614v-34.429h-11.443v34.429h11.443zm-5.722-39.13c3.991 0 6.475-2.644 6.475-5.95-.074-3.377-2.484-5.947-6.398-5.947-3.915 0-6.475 2.569-6.475 5.947 0 3.306 2.484 5.95 6.324 5.95h.074z"/><path d="M255.28 459.614h11.443v-19.227c0-1.028.074-2.058.377-2.792.826-2.056 2.709-4.185 5.872-4.185 4.142 0 5.798 3.157 5.798 7.785v18.42h11.442v-19.742c0-10.575-5.646-15.496-13.175-15.496-6.173 0-8.884 3.451-10.39 5.801h.076v-4.992h-11.443c.15 3.23 0 34.428 0 34.428z"/><path d="M306.357 409.627h-11.444v49.987h11.444v-11.162l2.86-3.602 8.96 14.764h14.078l-15.056-21.372 13.175-14.541h-13.778s-9.411 13.009-10.239 14.552v-28.626z"/><path d="M362.858 445.253c.151-.884.377-2.581.377-4.498 0-8.9-4.518-17.936-16.413-17.936-12.724 0-18.597 10.063-18.597 19.19 0 11.289 7.152 18.339 19.65 18.339 4.969 0 9.561-.734 13.326-2.276l-1.507-7.558c-3.086 1.024-6.248 1.536-10.163 1.536-5.345 0-10.012-2.194-10.39-6.871l23.716.072v.002zm-23.79-7.742c.301-2.938 2.259-7.272 7.152-7.272 5.194 0 6.399 4.628 6.399 7.272h-13.551z"/><path d="M391.481 409.627v17.304h-.15c-1.658-2.422-5.121-4.038-9.711-4.038-8.809 0-16.563 7.05-16.489 19.094 0 11.164 7.002 18.435 15.735 18.435 4.744 0 9.26-2.058 11.519-6.023h.226l.452 5.215h10.164c-.151-2.424-.303-6.61-.303-10.723v-39.265h-11.443v.001zm0 34.049c0 .881-.074 1.764-.225 2.497-.677 3.158-3.388 5.36-6.7 5.36-4.743 0-7.83-3.819-7.83-9.84 0-5.654 2.637-10.208 7.905-10.208 3.538 0 6.022 2.423 6.701 5.432.15.663.15 1.398.15 2.058v4.7h-.001z"/><path fill="#fff" d="M437.403 459.573v-34.43h-11.444v34.43h11.444zm-5.722-39.131c3.991 0 6.475-2.644 6.475-5.948-.074-3.378-2.484-5.949-6.399-5.949s-6.474 2.571-6.474 5.949c0 3.304 2.484 5.948 6.324 5.948h.074z"/><path fill="#fff" d="M443.736 459.573h11.443v-19.226c0-1.029.074-2.058.377-2.793.826-2.057 2.71-4.185 5.872-4.185 4.141 0 5.798 3.157 5.798 7.785v18.42h11.442v-19.742c0-10.575-5.645-15.496-13.174-15.496-6.173 0-8.884 3.451-10.39 5.801h.076v-4.993h-11.443c.149 3.23-.001 34.429-.001 34.429z"/></g></svg>