<svg xmlns="http://www.w3.org/2000/svg" xmlns:xlink="http://www.w3.org/1999/xlink" width="340.522" height="68.665"><defs><linearGradient id="a"><stop offset="0" stop-color="#333"/><stop offset="1" stop-color="#212121"/></linearGradient><linearGradient id="b"><stop offset="0" stop-color="#3cf"/><stop offset="1" stop-color="#06c1ff"/></linearGradient><linearGradient x1="3494.25" y1="-1044.388" x2="3494.25" y2="-1028.591" xlink:href="#a" gradientUnits="userSpaceOnUse" gradientTransform="matrix(4.262 0 0 4.262 -14710.634 4471.645)"/><linearGradient x1="3550.75" y1="-1045.513" x2="3550.75" y2="-1026.92" xlink:href="#b" gradientUnits="userSpaceOnUse" gradientTransform="matrix(4.262 0 0 4.262 -14725.634 4456.508)"/></defs><path d="M41.356 34.431c2.284 0 4.247-.843 5.881-2.526 1.635-1.685 2.451-3.707 2.451-6.063 0-2.358-.816-4.379-2.457-6.063-1.64-1.685-3.606-2.528-5.899-2.528h-24.683v-8.59c0-2.36-.813-4.38-2.437-6.061-1.618-1.689-3.57-2.529-5.839-2.529-2.338 0-4.32.827-5.941 2.478-1.621 1.653-2.433 3.693-2.433 6.119v34.286c0 7.08 2.433 13.131 7.304 18.153 4.867 5.026 10.729 7.535 17.587 7.535h16.467c2.287 0 4.244-.841 5.878-2.525 1.634-1.681 2.451-3.707 2.451-6.064 0-2.358-.816-4.377-2.451-6.062-1.634-1.685-3.597-2.53-5.882-2.53h-16.471c-2.287 0-4.233-.827-5.836-2.48-1.602-1.66-2.401-3.67-2.401-6.036v-8.517h24.709zm81.271-13.854c-2.134 0-3.97.787-5.492 2.369-1.527 1.575-2.292 3.47-2.292 5.677v15.998c0 2.215-.746 4.089-2.246 5.636-1.493 1.548-3.314 2.317-5.453 2.317-2.076 0-3.867-.769-5.361-2.317-1.496-1.547-2.246-3.421-2.246-5.636v-15.998c0-2.207-.764-4.102-2.297-5.677-1.531-1.582-3.366-2.369-5.506-2.369-2.203 0-4.069.807-5.602 2.414-1.528 1.611-2.296 3.519-2.296 5.728v15.904c0 2.215-.746 4.089-2.246 5.636-1.495 1.548-3.282 2.318-5.361 2.318-2.137 0-3.956-.77-5.455-2.318-1.493-1.548-2.244-3.421-2.244-5.636v-15.999c0-2.272-.762-4.18-2.291-5.729-1.524-1.545-3.355-2.318-5.496-2.318-2.133 0-3.97.772-5.491 2.318-1.53 1.547-2.291 3.451-2.291 5.724v15.991c0 6.624 2.274 12.288 6.825 16.986 4.554 4.7 10.042 7.048 16.454 7.048 5.867 0 11.002-2.049 15.401-6.148 4.461 4.099 9.626 6.148 15.492 6.148 6.415 0 11.899-2.35 16.45-7.048 4.554-4.698 6.828-10.363 6.828-16.986v-15.991c0-2.208-.763-4.1-2.288-5.676-1.522-1.578-3.355-2.365-5.494-2.365zm21.011-20.577c-2.288 0-4.244.841-5.879 2.527-1.629 1.684-2.445 3.705-2.445 6.064 0 2.354.817 4.38 2.445 6.061 1.635 1.685 3.591 2.529 5.879 2.529 2.284 0 4.242-.845 5.873-2.529 1.636-1.681 2.449-3.707 2.449-6.061 0-2.359-.813-4.38-2.449-6.064-1.631-1.686-3.589-2.527-5.873-2.527zm0 23.536c-2.288 0-4.244.843-5.879 2.529-1.629 1.685-2.445 3.708-2.445 6.071v27.91c0 2.36.817 4.386 2.445 6.071 1.635 1.687 3.591 2.529 5.879 2.529 2.284 0 4.242-.841 5.873-2.529 1.636-1.685 2.449-3.709 2.449-6.071v-27.91c0-2.363-.813-4.386-2.449-6.071-1.631-1.685-3.589-2.529-5.873-2.529zm45.943 18.353c2.288 0 4.247-.842 5.882-2.526 1.637-1.682 2.453-3.707 2.453-6.063s-.819-4.377-2.455-6.06c-1.643-1.685-3.612-2.527-5.901-2.527h-15.696v-16.051c0-2.36-.809-4.38-2.432-6.061-1.625-1.689-3.569-2.529-5.842-2.529-2.337 0-4.318.827-5.94 2.478-1.622 1.653-2.432 3.693-2.432 6.119 0 0-3.075 40.637 7.3 52.439 4.628 5.265 10.734 7.535 17.59 7.535h7.475c2.288 0 4.249-.841 5.881-2.525 1.635-1.681 2.45-3.707 2.45-6.064 0-2.358-.815-4.377-2.453-6.062-1.634-1.685-3.594-2.53-5.882-2.53h-7.478c-2.291 0-4.233-.827-5.835-2.48-1.603-1.66-1.506-7.095-1.506-7.095h14.82zm44.112 0c2.285 0 4.247-.842 5.881-2.526 1.637-1.682 2.455-3.707 2.455-6.063s-.821-4.377-2.46-6.06c-1.64-1.685-3.609-2.527-5.897-2.527h-15.696v-16.051c0-2.36-.813-4.38-2.432-6.061-1.625-1.689-3.57-2.529-5.844-2.529-2.336 0-4.316.827-5.939 2.478-1.621 1.653-2.433 3.693-2.433 6.119 0 0-3.074 40.637 7.302 52.439 4.626 5.265 10.73 7.535 17.588 7.535h7.476c2.284 0 4.245-.841 5.878-2.525 1.635-1.681 2.455-3.707 2.455-6.064 0-2.358-.82-4.377-2.455-6.062-1.634-1.685-3.596-2.53-5.881-2.53h-7.48c-2.288 0-4.23-.827-5.835-2.48-1.602-1.66-1.507-7.095-1.507-7.095h14.822zm104.556-18.559c-1.516-1.562-3.332-2.344-5.454-2.344h-11.358c-6.364 0-11.803 2.33-16.317 6.988-4.515 4.661-6.769 10.274-6.769 16.842v15.854c0 2.192.758 4.066 2.27 5.629 1.513 1.567 3.332 2.346 5.448 2.346 2.119 0 3.934-.779 5.448-2.347 1.515-1.565 2.27-3.444 2.27-5.631v-15.864c0-2.192.739-4.054 2.227-5.585 1.484-1.534 3.286-2.301 5.41-2.301h11.367c2.119 0 3.936-.781 5.452-2.342 1.517-1.563 2.278-3.439 2.278-5.623 0-2.185-.758-4.059-2.273-5.621zm-68.577-2.323c-25.232 0-24.757 22.519-24.757 22.519 0 7.083 1.869 12.559 6.735 17.582 4.872 5.024 11.044 7.537 17.592 7.537 18.001.496 24.268-8.201 23.528-13.079-.81-4.112-4.727-4.819-7.236-4.341-3.717.535-6.607 4.011-12.917 3.963-11.472-.508-10.582-5.831-10.582-5.831h25.233c5.665 0 8.157-1.948 8.157-7.444 0-6.908-6.009-20.905-25.754-20.905zm-7.469 17.624c0-5.495 8.326-5.495 8.326-5.495s8.242 0 8.242 5.495h-16.568z" fill="#3cf"/></svg>